# xmcd
#
# Track frame offsets: 
#        150
#        4442
#        24391
#        44737
#        58024
#        76149
#        90945
#        109910
#        128376
#        146017
#        161671
#        178648
#        193618
#        211555
#        234124
#        253583
#        267737
#
# Disc length: 3627 seconds
#
# Revision: 0
# Processed by: cddbd v1.5.2PL0 Copyright (c) Steve Scherf et al.
# Submitted via: ExactAudioCopyFreeDBPlugin 1.0
#
DISCID=de0e2911
DTITLE=Brandy - Two Eleven (Deluxe Edition)
DYEAR=2012
DGENRE=R&B
TTITLE0=Intro
TTITLE1=Wildest Dreams
TTITLE2=So Sick
TTITLE3=Slower
TTITLE4=No Such Thing As Too Late
TTITLE5=Let Me Go
TTITLE6=Without You
TTITLE7=Put It Down (feat. Chris Brown)
TTITLE8=Hardly Breathing
TTITLE9=Do You Know What You Have?
TTITLE10=Scared of Beautiful
TTITLE11=Wish Your Love Away
TTITLE12=Paint This House
TTITLE13=Can You Hear Me Now?
TTITLE14=Music
TTITLE15=What You Need
TTITLE16=Outro
EXTD=
EXTT0=
EXTT1=
EXTT2=
EXTT3=
EXTT4=
EXTT5=
EXTT6=
EXTT7=
EXTT8=
EXTT9=
EXTT10=
EXTT11=
EXTT12=
EXTT13=
EXTT14=
EXTT15=
EXTT16=
PLAYORDER=
